# Blender 4.2.3 LTS
# www.blender.org
mtllib Personaje.mtl
o Cubo.065
v 0.436637 1.647539 -0.439796
v 0.436637 2.344476 -0.439796
v 0.455842 1.647539 0.419858
v 0.455842 2.344476 0.419858
v -0.455842 1.647539 -0.419858
v -0.455842 2.344476 -0.419858
v -0.436637 1.647539 0.439796
v -0.436637 2.344476 0.439796
v -0.426574 1.894765 -0.146968
v -0.426574 2.103846 -0.146968
v -0.418892 1.894765 0.196894
v -0.418892 2.103846 0.196894
v -0.783565 1.894765 -0.138993
v -0.783565 2.103846 -0.138993
v -0.775883 1.894765 0.204869
v -0.775883 2.103846 0.204869
v -0.426064 1.763886 -0.146979
v -0.426064 1.903274 -0.146979
v -0.418382 1.763886 0.196882
v -0.418382 1.903274 0.196882
v -0.693807 1.763886 -0.140998
v -0.693807 1.903274 -0.140998
v -0.686126 1.763886 0.202864
v -0.686126 1.903274 0.202864
v 0.796082 1.221291 0.393480
v 0.796082 1.569759 0.393480
v 0.801844 1.221291 0.651376
v 0.801844 1.569759 0.651376
v -0.096397 1.221291 0.413418
v -0.096397 1.569759 0.413418
v -0.090635 1.221291 0.671314
v -0.090635 1.569759 0.671314
v 0.772435 1.221291 -0.665038
v 0.772435 1.569759 -0.665038
v 0.778197 1.221291 -0.407142
v 0.778197 1.569759 -0.407142
v -0.120044 1.221291 -0.645100
v -0.120044 1.569759 -0.645100
v -0.114283 1.221291 -0.387204
v -0.114283 1.569759 -0.387204
v 0.273472 2.340064 -0.162607
v 0.273472 2.479451 -0.162607
v 0.281154 2.340064 0.181255
v 0.281154 2.479451 0.181255
v -0.262015 2.340064 -0.150644
v -0.262015 2.479451 -0.150644
v -0.254333 2.340064 0.193218
v -0.254333 2.479451 0.193218
v 0.485838 0.659487 -0.290323
v 0.485838 1.077649 -0.290323
v 0.489679 0.659487 -0.118392
v 0.489679 1.077649 -0.118392
v 0.307342 0.659487 -0.286335
v 0.307342 1.077649 -0.286335
v 0.311183 0.659487 -0.114404
v 0.311183 1.077649 -0.114404
v 0.515489 0.658338 0.099473
v 0.515489 1.076499 0.099473
v 0.519330 0.658338 0.271404
v 0.519330 1.076499 0.271404
v 0.336993 0.658338 0.103460
v 0.336993 1.076499 0.103460
v 0.340834 0.658338 0.275391
v 0.340834 1.076499 0.275391
v 0.436637 1.038559 -0.439796
v 0.436637 1.735496 -0.439796
v 0.455842 1.038559 0.419858
v 0.455842 1.735496 0.419858
v -0.455842 1.038559 -0.419858
v -0.455842 1.735496 -0.419858
v -0.436637 1.038559 0.439796
v -0.436637 1.735496 0.439796
v 0.989574 1.038559 -0.452148
v 0.989574 1.735496 -0.452148
v 1.008778 1.038559 0.407505
v 1.008778 1.735496 0.407505
v 0.097094 1.038559 -0.432210
v 0.097094 1.735496 -0.432210
v 0.116299 1.038559 0.427443
v 0.116299 1.735496 0.427443
v 0.591129 0.508073 0.039914
v 0.591129 0.647460 0.039914
v 0.594970 0.508073 0.211844
v 0.594970 0.647460 0.211844
v 0.055641 0.508073 0.051876
v 0.055641 0.647460 0.051876
v 0.059482 0.508073 0.223807
v 0.059482 0.647460 0.223807
v 0.582854 0.508073 -0.330500
v 0.582854 0.647460 -0.330500
v 0.586695 0.508073 -0.158569
v 0.586695 0.647460 -0.158569
v 0.047366 0.508073 -0.318537
v 0.047366 0.647460 -0.318537
v 0.051207 0.508073 -0.146607
v 0.051207 0.647460 -0.146607
v 0.079033 2.093794 0.405752
v -0.010215 2.093794 0.407745
v 0.079530 2.161113 0.428001
v -0.009718 2.161113 0.429995
v 0.079396 2.093794 0.422015
v -0.009852 2.093794 0.424008
v 0.079893 2.161113 0.444264
v -0.009355 2.161113 0.446258
v 0.059615 2.093794 -0.463427
v -0.029633 2.093794 -0.461433
v 0.060112 2.161113 -0.441177
v -0.029136 2.161113 -0.439183
vn 0.9998 -0.0000 -0.0223
vn 0.0223 -0.0000 0.9998
vn -0.9998 -0.0000 0.0223
vn -0.0223 -0.0000 -0.9998
vn -0.0000 -1.0000 -0.0000
vn -0.0000 1.0000 -0.0000
vn -0.0212 0.3139 -0.9492
vt 0.375000 0.000000
vt 0.625000 0.000000
vt 0.625000 0.250000
vt 0.375000 0.250000
vt 0.625000 0.500000
vt 0.375000 0.500000
vt 0.625000 0.750000
vt 0.375000 0.750000
vt 0.625000 1.000000
vt 0.375000 1.000000
vt 0.125000 0.500000
vt 0.125000 0.750000
vt 0.875000 0.500000
vt 0.875000 0.750000
vt 0.000000 0.000000
vt 1.000000 0.000000
vt 1.000000 1.000000
vt 0.000000 1.000000
s 0
usemtl Material.012
f 1/1/1 2/2/1 4/3/1 3/4/1
f 3/4/2 4/3/2 8/5/2 7/6/2
f 7/6/3 8/5/3 6/7/3 5/8/3
f 5/8/4 6/7/4 2/9/4 1/10/4
f 3/11/5 7/6/5 5/8/5 1/12/5
f 8/5/6 4/13/6 2/14/6 6/7/6
f 67/4/2 68/3/2 72/5/2 71/6/2
f 71/6/3 72/5/3 70/7/3 69/8/3
f 69/8/4 70/7/4 66/9/4 65/10/4
f 67/11/5 71/6/5 69/8/5 65/12/5
f 75/11/5 79/6/5 77/8/5 73/12/5
usemtl Material.014
f 9/1/1 10/2/1 12/3/1 11/4/1
f 11/4/2 12/3/2 16/5/2 15/6/2
f 15/6/3 16/5/3 14/7/3 13/8/3
f 13/8/4 14/7/4 10/9/4 9/10/4
f 11/11/5 15/6/5 13/8/5 9/12/5
f 16/5/6 12/13/6 10/14/6 14/7/6
f 49/1/1 50/2/1 52/3/1 51/4/1
f 51/4/2 52/3/2 56/5/2 55/6/2
f 55/6/3 56/5/3 54/7/3 53/8/3
f 53/8/4 54/7/4 50/9/4 49/10/4
f 51/11/5 55/6/5 53/8/5 49/12/5
f 56/5/6 52/13/6 50/14/6 54/7/6
f 57/1/1 58/2/1 60/3/1 59/4/1
f 59/4/2 60/3/2 64/5/2 63/6/2
f 63/6/3 64/5/3 62/7/3 61/8/3
f 61/8/4 62/7/4 58/9/4 57/10/4
f 59/11/5 63/6/5 61/8/5 57/12/5
f 64/5/6 60/13/6 58/14/6 62/7/6
f 65/1/1 66/2/1 68/3/1 67/4/1
f 72/5/6 68/13/6 66/14/6 70/7/6
f 81/1/1 82/2/1 84/3/1 83/4/1
f 83/4/2 84/3/2 88/5/2 87/6/2
f 87/6/3 88/5/3 86/7/3 85/8/3
f 85/8/4 86/7/4 82/9/4 81/10/4
f 83/11/5 87/6/5 85/8/5 81/12/5
f 88/5/6 84/13/6 82/14/6 86/7/6
f 89/1/1 90/2/1 92/3/1 91/4/1
f 91/4/2 92/3/2 96/5/2 95/6/2
f 95/6/3 96/5/3 94/7/3 93/8/3
f 93/8/4 94/7/4 90/9/4 89/10/4
f 91/11/5 95/6/5 93/8/5 89/12/5
f 96/5/6 92/13/6 90/14/6 94/7/6
usemtl Material.013
f 17/1/1 18/2/1 20/3/1 19/4/1
f 19/4/2 20/3/2 24/5/2 23/6/2
f 23/6/3 24/5/3 22/7/3 21/8/3
f 21/8/4 22/7/4 18/9/4 17/10/4
f 19/11/5 23/6/5 21/8/5 17/12/5
f 24/5/6 20/13/6 18/14/6 22/7/6
f 41/1/1 42/2/1 44/3/1 43/4/1
f 43/4/2 44/3/2 48/5/2 47/6/2
f 47/6/3 48/5/3 46/7/3 45/8/3
f 45/8/4 46/7/4 42/9/4 41/10/4
f 43/11/5 47/6/5 45/8/5 41/12/5
f 48/5/6 44/13/6 42/14/6 46/7/6
usemtl Material.011
f 25/1/1 26/2/1 28/3/1 27/4/1
f 27/4/2 28/3/2 32/5/2 31/6/2
f 31/6/3 32/5/3 30/7/3 29/8/3
f 29/8/4 30/7/4 26/9/4 25/10/4
f 27/11/5 31/6/5 29/8/5 25/12/5
f 32/5/6 28/13/6 26/14/6 30/7/6
f 33/1/1 34/2/1 36/3/1 35/4/1
f 35/4/2 36/3/2 40/5/2 39/6/2
f 39/6/3 40/5/3 38/7/3 37/8/3
f 37/8/4 38/7/4 34/9/4 33/10/4
f 35/11/5 39/6/5 37/8/5 33/12/5
f 40/5/6 36/13/6 34/14/6 38/7/6
f 73/1/1 74/2/1 76/3/1 75/4/1
f 75/4/2 76/3/2 80/5/2 79/6/2
f 79/6/3 80/5/3 78/7/3 77/8/3
f 77/8/4 78/7/4 74/9/4 73/10/4
f 80/5/6 76/13/6 74/14/6 78/7/6
usemtl Material.016
f 97/15/7 98/16/7 100/17/7 99/18/7
f 101/15/7 102/16/7 104/17/7 103/18/7
f 105/15/7 106/16/7 108/17/7 107/18/7
